<svg xmlns="http://www.w3.org/2000/svg" width="360" height="95.879" viewBox="0 0 360 95.879">
  <g id="logo-footer-hospital" transform="translate(-135 -1281.679)">
    <g id="Group_15392" data-name="Group 15392" transform="translate(135 1281.679)">
      <g id="Group_15391" data-name="Group 15391" transform="translate(0 0)">
        <g id="Group_15390" data-name="Group 15390">
          <path id="Path_1415" data-name="Path 1415" d="M56.031,138.152v28.612H85.748V138.152Zm14.2,25.641v0H59.53V153.1h10.7Zm0-11.994H59.53V141.115h10.7Zm1.323,12-.007-9.857,9.886,9.857Zm.772-10.7h9.911l.007,9.893Zm9.918-1.3H71.534V141.115H82.24Z" transform="translate(-5.763 -126.179)" fill="#fff" fill-rule="evenodd"/>
          <g id="Group_15388" data-name="Group 15388" transform="translate(35.066 76.778)">
            <path id="Path_1416" data-name="Path 1416" d="M49.269,187.074c-.459-.018-.92-.04-1.392-.04-.49,0-.975.021-1.467.04v.861c0,1.111.034,1.5.072,2.036a4.759,4.759,0,0,0-.589-.052,5.231,5.231,0,0,0-.612.052c.076-1.308.082-2.6.082-3.909a19.307,19.307,0,0,0-.09-1.987c.174.018.488.051.62.051a4.879,4.879,0,0,0,.589-.051c-.038.471-.072.837-.072,2.45.434.014.872.034,1.3.034.526,0,1.036-.02,1.56-.034,0-.225-.008-1.262-.018-1.479,0-.268-.008-.333-.04-.971.165.018.437.051.629.051.154,0,.444-.033.6-.051-.114.9-.12,2.976-.12,3.868a15.736,15.736,0,0,0,.085,2.028,5.476,5.476,0,0,0-.625-.052,4.934,4.934,0,0,0-.588.052c.01-.155.069-1.193.069-1.506Z" transform="translate(-45.273 -183.988)" fill="#fff"/>
            <path id="Path_1417" data-name="Path 1417" d="M51.521,186.629c.439,0,1.4-.011,1.857-.059a1.187,1.187,0,0,0-.038.3.985.985,0,0,0,.038.3c-.219-.02-.444-.035-.661-.04-.4-.01-.8-.018-1.2-.018v2.327c.225,0,1.328-.024,2.062-.062a.577.577,0,0,0-.049.281.729.729,0,0,0,.049.314c-.519-.037-1.04-.052-1.588-.052-.516,0-1.058.016-1.607.052.021-.363.034-.714.042-1.075.023-.5.037-1.544.037-1.943,0-.362-.014-2.016-.079-2.877.42.028,1.091.051,1.554.051.4,0,.967-.033,1.578-.051a1.144,1.144,0,0,0-.04.271,1.181,1.181,0,0,0,.04.324l-.8-.044c-.318-.021-.408-.021-1.2-.021Z" transform="translate(-43.16 -183.988)" fill="#fff"/>
            <path id="Path_1418" data-name="Path 1418" d="M57.517,189.044l-.355-.913c-.372-.016-.735-.034-1.106-.034-.342,0-.684.018-1.032.034A17.077,17.077,0,0,0,54.342,190a2.179,2.179,0,0,0-.413-.052,1.943,1.943,0,0,0-.394.052l1-2.217a38.6,38.6,0,0,0,1.57-3.766,1.01,1.01,0,0,0,.283.045.974.974,0,0,0,.28-.045c.41,1.178.927,2.384,1.235,3.106.321.75.893,2.043,1.282,2.877-.123-.013-.435-.052-.667-.052s-.489.04-.639.052ZM56.1,185.484l-.876,2.118c.3,0,.588.027.889.027.264,0,.524-.011.791-.027Z" transform="translate(-41.86 -184.014)" fill="#fff"/>
            <path id="Path_1419" data-name="Path 1419" d="M58.613,186.422c0-.376,0-.463-.024-1.227-.008-.185-.024-.958-.031-1.119a2.546,2.546,0,0,0,.589.051,4.038,4.038,0,0,0,.6-.051c-.051,1.293-.076,2.381-.076,3.7,0,.6.017,1.162.025,1.635h.148a18.772,18.772,0,0,0,2-.081.978.978,0,0,0-.044.345.78.78,0,0,0,.044.293c-.435-.024-1.178-.052-1.638-.052-.554,0-1.015.016-1.642.052,0-.144.055-2.127.055-2.346Z" transform="translate(-39.786 -183.988)" fill="#fff"/>
            <path id="Path_1420" data-name="Path 1420" d="M64.053,188.794a8.087,8.087,0,0,0,.061,1.177c-.254-.027-.527-.052-.629-.052a4.961,4.961,0,0,0-.586.052c.037-.654.086-1.317.086-1.971l-.011-2.4c0-.311,0-.612-.013-.95h-.428c-.079,0-.909.021-1.341.064a1.483,1.483,0,0,0,.042-.324,1.441,1.441,0,0,0-.042-.314c.673.047,1.631.051,2.293.051.712,0,1.465,0,2.286-.051a2.875,2.875,0,0,0-.038.331,2.057,2.057,0,0,0,.038.307,16.517,16.517,0,0,0-1.7-.064c-.01.308-.014.639-.014.967Z" transform="translate(-38.698 -183.988)" fill="#fff"/>
            <path id="Path_1421" data-name="Path 1421" d="M69.5,187.074c-.463-.018-.923-.04-1.39-.04-.49,0-.985.021-1.468.04v.861a18.209,18.209,0,0,0,.083,2.036,5.584,5.584,0,0,0-.6-.052,5.157,5.157,0,0,0-.609.052c.065-1.308.079-2.6.079-3.909,0-.675-.031-1.324-.093-1.987.172.018.49.051.623.051a5.492,5.492,0,0,0,.6-.051,19.95,19.95,0,0,0-.083,2.45c.424.014.865.034,1.3.034.52,0,1.041-.02,1.559-.034,0-.225-.007-1.262-.007-1.479,0-.268-.017-.333-.052-.971.158.018.439.051.629.051.151,0,.438-.033.6-.051-.112.9-.123,2.976-.123,3.868a15.234,15.234,0,0,0,.088,2.028,5.578,5.578,0,0,0-.627-.052,4.9,4.9,0,0,0-.591.052c.017-.155.075-1.193.075-1.506Z" transform="translate(-36.919 -183.988)" fill="#fff"/>
            <path id="Path_1422" data-name="Path 1422" d="M77.371,185.3h-.086c-.1-.206-.4-.805-1.642-.805-1.436,0-2.2.943-2.2,2.562a2.9,2.9,0,0,0,.531,1.8,1.833,1.833,0,0,0,1.547.784,2.4,2.4,0,0,0,1.984-.983l.1.057-.1.852a4.413,4.413,0,0,1-2.165.544,2.858,2.858,0,0,1-3.069-2.97c0-1.732,1.051-3.116,3.349-3.116a4.791,4.791,0,0,1,2.012.425Z" transform="translate(-34.123 -184.009)" fill="#fff"/>
            <path id="Path_1423" data-name="Path 1423" d="M80.8,189.044l-.362-.913c-.37-.016-.729-.034-1.1-.034-.341,0-.684.018-1.024.034a18.93,18.93,0,0,0-.69,1.865,2.181,2.181,0,0,0-.417-.052,2,2,0,0,0-.389.052l1.006-2.217a39.043,39.043,0,0,0,1.563-3.766,1.008,1.008,0,0,0,.281.045,1.03,1.03,0,0,0,.285-.045c.41,1.178.926,2.384,1.239,3.106.321.75.887,2.043,1.277,2.877-.127-.013-.428-.052-.674-.052s-.476.04-.634.052Zm-1.414-3.561-.876,2.118c.3,0,.593.027.889.027.268,0,.523-.011.79-.027Z" transform="translate(-32.243 -184.014)" fill="#fff"/>
            <path id="Path_1424" data-name="Path 1424" d="M84.628,187.392c.127.184.308.465.444.646.678.947.91,1.255,1.451,1.933a6.241,6.241,0,0,0-.762-.052,3.957,3.957,0,0,0-.705.052c-.12-.2-.315-.516-.444-.714-.435-.678-.967-1.436-1.431-2.089h-.2v1.217c0,.252.037,1.359.037,1.585a4.083,4.083,0,0,0-.581-.052,4.169,4.169,0,0,0-.588.052c.057-1.691.069-1.881.069-3.54,0-1.132,0-1.245-.052-2.356a7.342,7.342,0,0,0,.849.047c.23,0,1.224-.047,1.427-.047a1.753,1.753,0,0,1,1.344.422,1.318,1.318,0,0,1,.4.959,1.637,1.637,0,0,1-1.5,1.594Zm-1.652-.63c.155.014.365.03.6.03a1.106,1.106,0,0,0,1.166-1.193.991.991,0,0,0-.362-.886,1.279,1.279,0,0,0-.793-.215c-.161,0-.482.03-.61.04Z" transform="translate(-30.167 -183.988)" fill="#fff"/>
            <path id="Path_1425" data-name="Path 1425" d="M87.311,186.629c.447,0,1.4-.011,1.855-.059a1.059,1.059,0,0,0-.042.3.881.881,0,0,0,.042.3c-.216-.02-.444-.035-.657-.04-.4-.01-.8-.018-1.2-.018v2.327c.223,0,1.327-.024,2.055-.062a.74.74,0,0,0-.038.281.939.939,0,0,0,.038.314c-.52-.037-1.032-.052-1.583-.052-.506,0-1.058.016-1.6.052.013-.363.03-.714.038-1.075.014-.5.035-1.544.035-1.943,0-.362-.021-2.016-.073-2.877.413.028,1.1.051,1.556.051.394,0,.958-.033,1.584-.051a.927.927,0,0,0-.047.271.969.969,0,0,0,.047.324l-.811-.044c-.324-.021-.4-.021-1.2-.021Z" transform="translate(-28.376 -183.988)" fill="#fff"/>
          </g>
          <g id="Group_15389" data-name="Group 15389" transform="translate(17.231 44.805)">
            <path id="Path_1426" data-name="Path 1426" d="M49.326,166.957l2.648,3.8a8.079,8.079,0,0,0,1.225,1.4l-.047.092a13.271,13.271,0,0,0-1.779-.092,16.147,16.147,0,0,0-1.792.092,10.739,10.739,0,0,0-.988-1.629l-2.32-3.278a.091.091,0,0,0-.072-.031c-.011,0-.011.049-.011.1,0,1.455.011,2.312.048,3.458.021.469.021.935.082,1.385a12.259,12.259,0,0,0-1.513-.092c-.447,0-1.133.048-1.56.092.151-1.427.143-2.885.143-6a38.448,38.448,0,0,0-.143-4.773c.753.065,1.438.1,1.865.1,1.053,0,2.134-.1,3.191-.1.609,0,3.719,0,3.719,2.767A2.886,2.886,0,0,1,49.326,166.957Zm-3.136-.495c.13.008.305.008.507.008.634,0,2.389,0,2.389-2.057,0-1.778-1.241-1.874-2.22-1.874a3.622,3.622,0,0,0-.643.038Z" transform="translate(-28.274 -161.352)" fill="#fff"/>
            <path id="Path_1427" data-name="Path 1427" d="M55.529,161.387a4.879,4.879,0,0,0,.886.089,4.346,4.346,0,0,0,.841-.089c1.607,4.282,3.565,8.63,4.622,10.9a10.8,10.8,0,0,0-1.6-.092,11.745,11.745,0,0,0-1.81.092c-.5-1.614-.9-2.592-1.092-3.058-.582-.017-1.162-.048-1.775-.048-.633,0-1.3.016-1.958.048a28.443,28.443,0,0,0-1.029,3.058,6.458,6.458,0,0,0-.937-.092,4.212,4.212,0,0,0-.958.092C51.762,170.281,54.352,164.449,55.529,161.387Zm.057,3.256-1.454,3.405c.462.025.921.044,1.385.044s.957-.027,1.431-.044Z" transform="translate(-25.189 -161.387)" fill="#fff"/>
            <path id="Path_1428" data-name="Path 1428" d="M73.233,168.573c.151,1.225.353,2.469.616,3.677a10.182,10.182,0,0,0-1.557-.112,11.178,11.178,0,0,0-1.638.112,32.03,32.03,0,0,0-.276-3.387c-.065-.6-.373-3.242-.42-3.788-1.184,2.19-1.307,2.476-2.443,4.908-.667,1.429-.755,1.633-1.012,2.268a4.623,4.623,0,0,0-.613-.044,3.114,3.114,0,0,0-.629.044,18.509,18.509,0,0,0-.975-2.347c-.769-1.594-1.556-3.194-2.353-4.779-.243,1.519-.465,3.056-.6,4.581-.064.808-.157,1.642-.157,2.545a4.555,4.555,0,0,0-.916-.092,7.634,7.634,0,0,0-.955.092c.157-.6.291-1.194.4-1.831l1.169-7.142a12.037,12.037,0,0,0,.188-1.8,10.968,10.968,0,0,0,1.245.1c.362,0,.805-.065,1.125-.1.379,1.164,2.511,5.822,3.247,7.2.952-1.831,1.878-3.685,2.729-5.536a17.067,17.067,0,0,0,.69-1.667,6.359,6.359,0,0,0,1.227.1,5.167,5.167,0,0,0,1.053-.1c.049.593.12,1.455.188,2.021Z" transform="translate(-21.641 -161.352)" fill="#fff"/>
            <path id="Path_1429" data-name="Path 1429" d="M77.054,163.979a2.1,2.1,0,0,0-2.213-1.529c-.343,0-1.929.034-1.929,1.352,0,.979.766,1.262,3.288,2.175a3.573,3.573,0,0,1,1.641,1.2,2.884,2.884,0,0,1,.512,1.756c0,2.015-1.585,3.54-4.539,3.54a6.636,6.636,0,0,1-3.257-.76,8.273,8.273,0,0,0,.353-2.142h.43a2.414,2.414,0,0,0,2.6,1.812c1.433,0,2.049-.759,2.049-1.549,0-.87-.6-1.122-2.683-1.944-1.55-.623-2.607-1.429-2.607-3.133,0-2.142,1.57-3.356,4.147-3.356a6.38,6.38,0,0,1,3.155.743,5.075,5.075,0,0,0-.561,1.84Z" transform="translate(-16.994 -161.383)" fill="#fff"/>
            <path id="Path_1430" data-name="Path 1430" d="M81.154,161.387a4.946,4.946,0,0,0,.894.089,4.281,4.281,0,0,0,.831-.089c1.607,4.282,3.568,8.63,4.626,10.9a10.869,10.869,0,0,0-1.6-.092,11.773,11.773,0,0,0-1.813.092A31.6,31.6,0,0,0,83,169.227c-.579-.017-1.159-.048-1.773-.048-.633,0-1.3.016-1.96.048a27.319,27.319,0,0,0-1.024,3.058,6.637,6.637,0,0,0-.941-.092,4.144,4.144,0,0,0-.952.092C77.39,170.281,79.986,164.449,81.154,161.387Zm.054,3.256-1.446,3.405c.456.025.913.044,1.383.044s.95-.027,1.427-.044Z" transform="translate(-14.602 -161.387)" fill="#fff"/>
            <path id="Path_1431" data-name="Path 1431" d="M90.086,170.492a13.5,13.5,0,0,0,.171,1.758,15.462,15.462,0,0,0-1.605-.092c-.341,0-1.029.03-1.608.092A14.383,14.383,0,0,0,87.2,169.7v-2.049l-2.477-4.163c-.315-.53-.831-1.323-1.349-2.021.629.048,1.269.1,1.895.1.584,0,1.164-.051,1.741-.1.291.685.651,1.388,1.065,2.149.2.369,1.145,2.012,1.311,2.356a39.416,39.416,0,0,0,2.323-4.5,7.068,7.068,0,0,0,1.087.1,6.111,6.111,0,0,0,1.007-.1,46.264,46.264,0,0,0-3.718,6.007Z" transform="translate(-11.7 -161.352)" fill="#fff"/>
            <path id="Path_1432" data-name="Path 1432" d="M39.155,174.957a2.1,2.1,0,0,0-2.221-1.522c-.336,0-1.925.028-1.925,1.351,0,.976.77,1.26,3.3,2.169a3.658,3.658,0,0,1,1.636,1.2,2.839,2.839,0,0,1,.512,1.752c0,2.019-1.587,3.538-4.542,3.538a6.662,6.662,0,0,1-3.261-.759,8.11,8.11,0,0,0,.363-2.138h.424a2.419,2.419,0,0,0,2.592,1.817c1.438,0,2.053-.766,2.053-1.557,0-.869-.6-1.112-2.678-1.943-1.552-.619-2.613-1.424-2.613-3.134,0-2.144,1.568-3.35,4.142-3.35a6.353,6.353,0,0,1,3.16.74,5.276,5.276,0,0,0-.564,1.837Z" transform="translate(-32.651 -156.846)" fill="#fff"/>
            <path id="Path_1433" data-name="Path 1433" d="M42.6,183.23a13.336,13.336,0,0,0-1.556-.09,14.527,14.527,0,0,0-1.605.09c.17-1.365.17-4.859.17-5.606,0-1.608-.014-3.636-.151-5.172a11.843,11.843,0,0,0,1.607.092,12.557,12.557,0,0,0,1.549-.092c-.117,1.772-.168,3.853-.168,5.62C42.446,179.554,42.446,181.865,42.6,183.23Z" transform="translate(-29.847 -156.816)" fill="#fff"/>
            <path id="Path_1434" data-name="Path 1434" d="M56.784,179.554c.153,1.224.356,2.467.6,3.677a9.851,9.851,0,0,0-1.553-.107,11.827,11.827,0,0,0-1.639.107,30.79,30.79,0,0,0-.268-3.381c-.068-.6-.377-3.246-.428-3.787-1.177,2.192-1.3,2.464-2.44,4.9-.663,1.427-.753,1.625-1.008,2.265a4.469,4.469,0,0,0-.609-.047,3.291,3.291,0,0,0-.636.047,17.835,17.835,0,0,0-.976-2.34c-.763-1.6-1.55-3.2-2.357-4.786-.23,1.52-.455,3.061-.592,4.577-.068.81-.153,1.653-.153,2.549a4.9,4.9,0,0,0-.921-.09,7.035,7.035,0,0,0-.955.09c.15-.606.288-1.2.389-1.826l1.18-7.147a13.167,13.167,0,0,0,.187-1.8,9.93,9.93,0,0,0,1.243.092c.356,0,.807-.058,1.129-.092.382,1.17,2.511,5.829,3.244,7.212.95-1.838,1.875-3.682,2.734-5.55a15.663,15.663,0,0,0,.681-1.662,6.179,6.179,0,0,0,1.227.092,5.315,5.315,0,0,0,1.057-.092c.055.6.123,1.467.188,2.021Z" transform="translate(-28.437 -156.816)" fill="#fff"/>
            <path id="Path_1435" data-name="Path 1435" d="M54.483,174.506a14.054,14.054,0,0,0-.15-2.053c1.478.064,2.9.124,3.958.124.937,0,1.826-.033,3.02-.124a3.379,3.379,0,0,0-.086.716,2.793,2.793,0,0,0,.086.777,27.185,27.185,0,0,0-3.872-.2c-.034.565-.055,1.106-.055,1.665v1.58a28.238,28.238,0,0,0,3.8-.168,3.935,3.935,0,0,0-.083.749,5.743,5.743,0,0,0,.083.725,36.232,36.232,0,0,0-3.8-.123v3.085c0,.236.021.452.035.671a25.1,25.1,0,0,0,3.841-.232,3.658,3.658,0,0,0-.089.731,4.072,4.072,0,0,0,.089.805c-1.091-.09-2.679-.12-3.855-.12-1.1,0-2.2.061-3.161.12a19.984,19.984,0,0,0,.22-3.1Z" transform="translate(-23.732 -156.816)" fill="#fff"/>
            <path id="Path_1436" data-name="Path 1436" d="M63.022,175.457a25.752,25.752,0,0,0-.164-3,13.228,13.228,0,0,0,1.587.092c1.314,0,2.609-.092,3.925-.092,3.263,0,5.8,1.744,5.8,5.192,0,3.024-2.084,5.586-6.4,5.586-.592,0-2.336-.09-2.791-.09-.307,0-1.316.01-2.12.09.1-1.019.164-2.052.164-3.071Zm2.839,5.4c0,.386.018.791.035,1.18a7.039,7.039,0,0,0,1.125.073,4.047,4.047,0,0,0,2.885-.941,5.318,5.318,0,0,0,1.191-3.543,4.229,4.229,0,0,0-1.3-3.342,3.773,3.773,0,0,0-2.522-.711c-.873,0-1.156.021-1.364.031,0,.326-.054,1.54-.054,2.063Z" transform="translate(-20.174 -156.816)" fill="#fff"/>
            <path id="Path_1437" data-name="Path 1437" d="M75.684,172.369a4.471,4.471,0,0,0,.883.089,3.953,3.953,0,0,0,.838-.089c1.6,4.282,3.565,8.631,4.624,10.9a10.69,10.69,0,0,0-1.6-.09,11.787,11.787,0,0,0-1.807.09c-.506-1.614-.914-2.592-1.1-3.058-.579-.013-1.163-.047-1.78-.047s-1.289.016-1.956.047a27.955,27.955,0,0,0-1.027,3.058,6.121,6.121,0,0,0-.938-.09,4.288,4.288,0,0,0-.958.09C71.909,181.267,74.5,175.424,75.684,172.369Zm.048,3.254-1.451,3.4c.458.035.923.051,1.383.051.48,0,.952-.03,1.434-.051Z" transform="translate(-16.866 -156.851)" fill="#fff"/>
            <path id="Path_1438" data-name="Path 1438" d="M85.718,177.934l2.64,3.8a8.074,8.074,0,0,0,1.229,1.4l-.052.09a12.914,12.914,0,0,0-1.769-.09,16.849,16.849,0,0,0-1.792.09,10.689,10.689,0,0,0-.985-1.628l-2.326-3.28a.1.1,0,0,0-.073-.03c-.007,0-.007.052-.007.095,0,1.461.007,2.312.042,3.461a13.239,13.239,0,0,0,.092,1.382,12.907,12.907,0,0,0-1.519-.09c-.441,0-1.128.044-1.554.09.15-1.431.133-2.885.133-6a41.3,41.3,0,0,0-.133-4.773c.753.064,1.436.092,1.861.092,1.053,0,2.131-.092,3.192-.092.61,0,3.716,0,3.716,2.772A2.882,2.882,0,0,1,85.718,177.934Zm-3.136-.49c.134.008.3.008.509.008.629,0,2.391,0,2.391-2.063,0-1.766-1.246-1.864-2.226-1.864a4.427,4.427,0,0,0-.644.031Z" transform="translate(-13.241 -156.816)" fill="#fff"/>
            <path id="Path_1439" data-name="Path 1439" d="M93.068,177.486c.684.1,2.924.448,2.924,2.686,0,1.878-1.763,3.058-4.239,3.058-.456,0-1.821-.09-2.541-.09-.541,0-1.126.044-1.713.09.11-1.286.133-2.962.133-4.318,0-1.484,0-2.994-.041-4.484-.034-.995-.1-1.5-.148-1.975a7.87,7.87,0,0,0,1.46.092c.835,0,1.968-.092,3.073-.092,2.045,0,3.7.869,3.7,2.553,0,1.826-1.875,2.247-2.611,2.4Zm-2.614-.435a2.223,2.223,0,0,0,.348.018,1.786,1.786,0,0,0,2-1.844c0-1.218-.633-1.759-1.947-1.759-.1,0-.2,0-.369.011,0,.188-.028,1.089-.028,1.293Zm0,1.022c0,2.535,0,3.044.042,4.055.153.014.324.033.5.033a1.861,1.861,0,0,0,1.966-2.094C92.967,178.433,92.048,178.073,90.454,178.073Z" transform="translate(-10.019 -156.816)" fill="#fff"/>
            <path id="Path_1440" data-name="Path 1440" d="M100.375,181.475a15.261,15.261,0,0,0,.17,1.755,16.015,16.015,0,0,0-1.605-.09c-.338,0-1.013.031-1.6.09a14.537,14.537,0,0,0,.155-2.549v-2.045l-2.476-4.163c-.324-.527-.834-1.318-1.345-2.021.63.052,1.259.092,1.892.092.584,0,1.16-.04,1.744-.092.288.688.649,1.386,1.053,2.148.209.37,1.149,2.015,1.314,2.36A38.8,38.8,0,0,0,102,172.453a6.73,6.73,0,0,0,1.088.092,5.624,5.624,0,0,0,1.008-.092,46.681,46.681,0,0,0-3.721,6.013Z" transform="translate(-7.445 -156.816)" fill="#fff"/>
          </g>
          <path id="Path_1441" data-name="Path 1441" d="M146.862,133.986v68.826a18.458,18.458,0,0,1-18.439,18.439H43.2a18.456,18.456,0,0,1-18.433-18.439V152.429A18.457,18.457,0,0,1,43.2,133.986H146.862m4.308-4.307H43.2a22.771,22.771,0,0,0-22.742,22.75v50.383A22.768,22.768,0,0,0,43.2,225.558h85.224a22.772,22.772,0,0,0,22.747-22.746V129.679Z" transform="translate(-20.457 -129.679)" fill="#fff"/>
        </g>
      </g>
    </g>
    <g id="Group_15394" data-name="Group 15394" transform="translate(287.674 1287.938)">
      <g id="Group_15393" data-name="Group 15393" transform="translate(0 0)">
        <path id="Path_1442" data-name="Path 1442" d="M145.9,164.516l-7.615-11.942h-6.039v11.942H128.5V134.46h12.077c5.5,0,9.465,3.514,9.465,9.056a8.343,8.343,0,0,1-7.842,8.744l8.112,12.255Zm.271-21c0-3.424-2.479-5.723-6.039-5.723h-7.886v11.491h7.886C143.69,149.284,146.168,146.9,146.168,143.516Z" transform="translate(-128.502 -133.963)" fill="#fff"/>
        <path id="Path_1443" data-name="Path 1443" d="M146.074,160.426l2.252-2.884a12.4,12.4,0,0,0,9.418,4.327c5.363,0,7.075-2.884,7.075-5.228,0-7.751-17.8-3.424-17.8-14.15,0-4.957,4.417-8.382,10.365-8.382a14.125,14.125,0,0,1,10.635,4.236l-2.252,2.75a11.34,11.34,0,0,0-8.7-3.6c-3.561,0-6.174,1.937-6.174,4.776,0,6.76,17.8,2.884,17.8,14.1,0,4.327-2.974,8.833-11.085,8.833A14.953,14.953,0,0,1,146.074,160.426Z" transform="translate(-121.244 -134.108)" fill="#fff"/>
        <path id="Path_1444" data-name="Path 1444" d="M173.147,164.516V134.46h12.077c6.038,0,9.418,4.146,9.418,9.056s-3.424,9.058-9.418,9.058h-8.337v11.942Zm17.621-21c0-3.379-2.433-5.723-5.994-5.723h-7.886v11.447h7.886C188.335,149.241,190.768,146.9,190.768,143.516Z" transform="translate(-110.061 -133.963)" fill="#fff"/>
        <path id="Path_1445" data-name="Path 1445" d="M191.2,162.237V140.472h3.38v3.47a9.379,9.379,0,0,1,7.256-3.965v3.47a10.807,10.807,0,0,0-1.307-.092,7.971,7.971,0,0,0-5.949,3.47v15.411Z" transform="translate(-102.606 -131.684)" fill="#fff"/>
        <path id="Path_1446" data-name="Path 1446" d="M200.253,151.346c0-6.308,4.506-11.4,10.725-11.4,6.579,0,10.455,5.138,10.455,11.672v.858H203.858c.271,4.1,3.109,7.525,7.8,7.525a9.471,9.471,0,0,0,6.76-2.794l1.622,2.209a12.009,12.009,0,0,1-8.652,3.379C204.895,162.792,200.253,158.151,200.253,151.346Zm10.68-8.607c-4.642,0-6.94,3.92-7.12,7.209H218.1A7.043,7.043,0,0,0,210.933,142.739Z" transform="translate(-98.865 -131.697)" fill="#fff"/>
        <path id="Path_1447" data-name="Path 1447" d="M244.8,162.25V147.471c0-2.75-1.171-4.508-4.012-4.508a7.488,7.488,0,0,0-5.768,3.335V162.25h-3.38V147.471c0-2.75-1.126-4.508-4.01-4.508a7.6,7.6,0,0,0-5.723,3.381V162.25h-3.38V140.485h3.38v3.155a9.508,9.508,0,0,1,7.075-3.7c3.29,0,5.182,1.8,5.813,4.055a9.165,9.165,0,0,1,7.3-4.055c3.965,0,6.083,2.21,6.083,6.581V162.25Z" transform="translate(-91.317 -131.697)" fill="#fff"/>
        <path id="Path_1448" data-name="Path 1448" d="M243.3,137.2a2.309,2.309,0,0,1,2.3-2.3,2.27,2.27,0,0,1,2.254,2.3,2.231,2.231,0,0,1-2.254,2.254A2.27,2.27,0,0,1,243.3,137.2Zm.585,27.128V142.566h3.38v21.765Z" transform="translate(-81.083 -133.778)" fill="#fff"/>
        <path id="Path_1449" data-name="Path 1449" d="M249.426,151.346c0-6.308,4.506-11.4,10.725-11.4,6.579,0,10.455,5.138,10.455,11.672v.858H253.031c.27,4.1,3.109,7.525,7.8,7.525a9.472,9.472,0,0,0,6.76-2.794l1.622,2.209a12.009,12.009,0,0,1-8.652,3.379C254.066,162.792,249.426,158.151,249.426,151.346Zm10.68-8.607c-4.642,0-6.94,3.92-7.12,7.209H267.27A7.044,7.044,0,0,0,260.106,142.739Z" transform="translate(-78.554 -131.697)" fill="#fff"/>
        <path id="Path_1450" data-name="Path 1450" d="M267.7,162.237V140.472h3.38v3.47a9.376,9.376,0,0,1,7.255-3.965v3.47a10.806,10.806,0,0,0-1.307-.092,7.968,7.968,0,0,0-5.948,3.47v15.411Z" transform="translate(-71.006 -131.684)" fill="#fff"/>
        <path id="Path_1451" data-name="Path 1451" d="M128.5,198.8V168.74h13.384c5.227,0,8.427,3.155,8.427,7.662a6.832,6.832,0,0,1-5.272,6.894c3.2.5,5.858,3.786,5.858,7.39,0,4.823-3.2,8.112-8.7,8.112Zm17.936-21.857c0-2.7-1.8-4.865-5.182-4.865h-9.014v9.688h9.014C144.635,181.764,146.438,179.69,146.438,176.941Zm.586,13.339c0-2.748-1.892-5.183-5.543-5.183h-9.239v10.365h9.239C144.951,195.462,147.024,193.48,147.024,190.281Z" transform="translate(-128.502 -119.803)" fill="#fff"/>
        <path id="Path_1452" data-name="Path 1452" d="M147.477,171.485a2.307,2.307,0,0,1,2.3-2.3,2.27,2.27,0,0,1,2.254,2.3,2.231,2.231,0,0,1-2.254,2.252A2.268,2.268,0,0,1,147.477,171.485Zm.585,27.129V176.847h3.38v21.767Z" transform="translate(-120.664 -119.618)" fill="#fff"/>
        <path id="Path_1453" data-name="Path 1453" d="M169.229,196.532V182.292c0-3.876-1.983-5.047-4.912-5.047a8.479,8.479,0,0,0-6.445,3.38v15.908h-3.38V174.766h3.38v3.155a10.648,10.648,0,0,1,7.8-3.7c4.506,0,6.9,2.3,6.9,7.029v15.278Z" transform="translate(-117.767 -117.537)" fill="#fff"/>
        <path id="Path_1454" data-name="Path 1454" d="M173.053,193.561V179.321h-3.6v-2.974h3.6V170.4h3.425v5.949h4.416v2.974h-4.416V192.84c0,1.624.721,2.8,2.163,2.8a3.2,3.2,0,0,0,2.3-.947l.992,2.568a5.486,5.486,0,0,1-4.012,1.4C174.675,198.655,173.053,196.807,173.053,193.561Z" transform="translate(-111.589 -119.118)" fill="#fff"/>
        <path id="Path_1455" data-name="Path 1455" d="M194.274,196.532v-2.478a9.35,9.35,0,0,1-7.209,3.02c-3.651,0-7.571-2.479-7.571-7.211,0-4.913,3.875-7.166,7.571-7.166a9.218,9.218,0,0,1,7.209,2.929v-3.92c0-2.884-2.343-4.551-5.5-4.551a8.5,8.5,0,0,0-6.67,3.02l-1.577-2.346a11.4,11.4,0,0,1,8.7-3.6c4.642,0,8.427,2.072,8.427,7.345v14.961Zm0-4.6v-4.147a7.357,7.357,0,0,0-5.948-2.658c-3.2,0-5.408,1.984-5.408,4.732,0,2.794,2.207,4.776,5.408,4.776A7.262,7.262,0,0,0,194.274,191.936Z" transform="translate(-107.44 -117.537)" fill="#fff"/>
        <path id="Path_1456" data-name="Path 1456" d="M196.585,196.519V174.753h3.381v3.469a9.376,9.376,0,0,1,7.255-3.964v3.469a11.123,11.123,0,0,0-1.307-.09,7.968,7.968,0,0,0-5.948,3.469v15.414Z" transform="translate(-100.38 -117.524)" fill="#fff"/>
        <path id="Path_1457" data-name="Path 1457" d="M205.642,185.627c0-6.309,4.146-11.4,10.77-11.4s10.77,5.091,10.77,11.4-4.146,11.447-10.77,11.447S205.642,191.936,205.642,185.627Zm17.98,0c0-4.416-2.568-8.382-7.209-8.382s-7.211,3.966-7.211,8.382c0,4.461,2.569,8.427,7.211,8.427S223.622,190.088,223.622,185.627Z" transform="translate(-96.639 -117.537)" fill="#fff"/>
      </g>
    </g>
  </g>
</svg>
